:FULLY-SPECIFIED
:FORCE-ALL-JOINTS-BE-3DOF
:DEGREES
33
root 7.99173 15.746 -32.1693 7.52952 -8.0737 -7.07158
lfemur -40.4321 4.91751 -9.01852
ltibia 23.4561 0 0
lfoot -11.1082 11.5374 0
ltoes -12.2177 0 0
rfemur 17.9585 6.69603 30.4244
rtibia 1.75597 0 0
rfoot -10.8855 -0.900806 0
rtoes -32.3299 0 0
lowerback -8.19703 1.52805 3.81189
upperback -1.01762 1.5407 3.53689
thorax 3.54825 0.795877 1.70081
lowerneck -20.6205 -4.51412 -11.8284
upperneck 16.3064 -5.78767 14.7439
head 9.34705 -1.90124 6.32404
lclavicle 2.79068e-014 1.15424e-014 0
lhumerus -42.825 -8.14961 90.8785
lradius 25.8548 0 0
lwrist 2.90594 0 0
lhand -11.1372 -26.3546 0
lfingers 7.12502 0 0
lthumb 14.887 3.07334 0
rclavicle 2.79068e-014 1.15424e-014 0
rhumerus -43.9683 20.5528 -92.85
rradius 60.2491 0 0
rwrist -29.7769 0 0
rhand -30.1396 -30.7015 0
rfingers 7.12502 0 0
rthumb -3.4523 -60.6533 0
34
root 8.02675 15.7628 -32.0158 7.45639 -8.20782 -6.81931
lfemur -40.0273 5.02527 -9.50419
ltibia 23.7897 0 0
lfoot -11.0782 11.4036 0
ltoes -11.9231 0 0
rfemur 17.2998 6.46095 29.9225
rtibia 3.51194 0 0
rfoot -10.2373 -1.19806 0
rtoes -31.3744 0 0
lowerback -8.09912 1.4956 3.60665
upperback -1.05389 1.51664 3.50301
thorax 3.45364 0.783574 1.77623
lowerneck -20.6881 -4.50018 -11.8243
upperneck 16.3498 -5.75249 14.6823
head 9.36674 -1.88869 6.30774
lclavicle 2.77601e-014 1.11576e-014 0
lhumerus -42.7244 -8.03889 90.7968
lradius 25.6803 0 0
lwrist 2.67432 0 0
lhand -10.6925 -26.0569 0
lfingers 7.12502 0 0
lthumb 15.3141 3.32285 0
rclavicle 2.77601e-014 1.11576e-014 0
rhumerus -43.9337 20.3172 -92.7929
rradius 59.5044 0 0
rwrist -29.4275 0 0
rhand -30.1145 -30.5316 0
rfingers 7.12502 0 0
rthumb -3.42804 -60.4837 0
35
root 8.06178 15.7795 -31.8622 7.38327 -8.34193 -6.56704
lfemur -39.6225 5.13304 -9.98986
ltibia 24.1234 0 0
lfoot -11.0481 11.2699 0
ltoes -11.6286 0 0
rfemur 16.641 6.22588 29.4205
rtibia 5.2679 0 0
rfoot -9.58906 -1.49532 0
rtoes -30.4189 0 0
lowerback -8.0012 1.46316 3.40141
upperback -1.09016 1.49257 3.46912
thorax 3.35903 0.771272 1.85166
lowerneck -20.7556 -4.48623 -11.8201
upperneck 16.3933 -5.7173 14.6208
head 9.38643 -1.87614 6.29144
lclavicle 2.76134e-014 1.07729e-014 0
lhumerus -42.6239 -7.92816 90.7152
lradius 25.5058 0 0
lwrist 2.44271 0 0
lhand -10.2478 -25.7591 0
lfingers 7.12502 0 0
lthumb 15.7412 3.57236 0
rclavicle 2.76134e-014 1.07729e-014 0
rhumerus -43.899 20.0817 -92.7358
rradius 58.7597 0 0
rwrist -29.078 0 0
rhand -30.0894 -30.3618 0
rfingers 7.12502 0 0
rthumb -3.40379 -60.3142 0
36
root 8.0968 15.7962 -31.7087 7.31014 -8.47604 -6.31478
lfemur -39.2176 5.2408 -10.4755
ltibia 24.457 0 0
lfoot -11.018 11.1361 0
ltoes -11.334 0 0
rfemur 15.9822 5.9908 28.9186
rtibia 7.02387 0 0
rfoot -8.94084 -1.79257 0
rtoes -29.4634 0 0
lowerback -7.90329 1.43071 3.19617
upperback -1.12643 1.46851 3.43523
thorax 3.26442 0.758969 1.92708
lowerneck -20.8231 -4.47228 -11.8159
upperneck 16.4367 -5.68212 14.5592
head 9.40612 -1.8636 6.27514
lclavicle 2.74668e-014 1.03881e-014 0
lhumerus -42.5233 -7.81744 90.6336
lradius 25.3313 0 0
lwrist 2.2111 0 0
lhand -9.80306 -25.4613 0
lfingers 7.12502 0 0
lthumb 16.1683 3.82186 0
rclavicle 2.74668e-014 1.03881e-014 0
rhumerus -43.8644 19.8462 -92.6787
rradius 58.015 0 0
rwrist -28.7285 0 0
rhand -30.0642 -30.1919 0
rfingers 7.12502 0 0
rthumb -3.37954 -60.1447 0
37
root 8.13183 15.8129 -31.5551 7.23701 -8.61016 -6.06251
lfemur -38.8128 5.34857 -10.9612
ltibia 24.7907 0 0
lfoot -10.9879 11.0023 0
ltoes -11.0395 0 0
rfemur 15.3234 5.75573 28.4166
rtibia 8.77984 0 0
rfoot -8.29263 -2.08983 0
rtoes -28.5079 0 0
lowerback -7.80537 1.39826 2.99093
upperback -1.1627 1.44445 3.40135
thorax 3.16981 0.746667 2.0025
lowerneck -20.8907 -4.45833 -11.8118
upperneck 16.4802 -5.64693 14.4977
head 9.42581 -1.85105 6.25884
lclavicle 2.73201e-014 1.00034e-014 0
lhumerus -42.4227 -7.70671 90.5519
lradius 25.1568 0 0
lwrist 1.97948 0 0
lhand -9.35835 -25.1635 0
lfingers 7.12502 0 0
lthumb 16.5954 4.07137 0
rclavicle 2.73201e-014 1.00034e-014 0
rhumerus -43.8297 19.6106 -92.6216
rradius 57.2703 0 0
rwrist -28.379 0 0
rhand -30.0391 -30.022 0
rfingers 7.12502 0 0
rthumb -3.35529 -59.9752 0
38
root 8.16685 15.8297 -31.4016 7.16388 -8.74427 -5.81024
lfemur -38.408 5.45633 -11.4469
ltibia 25.1243 0 0
lfoot -10.9579 10.8685 0
ltoes -10.7449 0 0
rfemur 14.6647 5.52065 27.9147
rtibia 10.5358 0 0
rfoot -7.64441 -2.38709 0
rtoes -27.5524 0 0
lowerback -7.70746 1.36581 2.78568
upperback -1.19897 1.42039 3.36746
thorax 3.0752 0.734364 2.07792
lowerneck -20.9582 -4.44439 -11.8076
upperneck 16.5236 -5.61174 14.4362
head 9.4455 -1.8385 6.24254
lclavicle 2.71734e-014 9.61863e-015 0
lhumerus -42.3221 -7.59599 90.4703
lradius 24.9823 0 0
lwrist 1.74787 0 0
lhand -8.91364 -24.8658 0
lfingers 7.12502 0 0
lthumb 17.0225 4.32088 0
rclavicle 2.71734e-014 9.61863e-015 0
rhumerus -43.7951 19.3751 -92.5644
rradius 56.5256 0 0
rwrist -28.0296 0 0
rhand -30.014 -29.8521 0
rfingers 7.12502 0 0
rthumb -3.33103 -59.8056 0
39
root 8.20188 15.8464 -31.248 7.09075 -8.87838 -5.55797
lfemur -38.0032 5.5641 -11.9325
ltibia 25.458 0 0
lfoot -10.9278 10.7348 0
ltoes -10.4504 0 0
rfemur 14.0059 5.28558 27.4127
rtibia 12.2918 0 0
rfoot -6.9962 -2.68434 0
rtoes -26.5968 0 0
lowerback -7.60954 1.33337 2.58044
upperback -1.23523 1.39633 3.33357
thorax 2.98059 0.722062 2.15334
lowerneck -21.0257 -4.43044 -11.8034
upperneck 16.5671 -5.57656 14.3746
head 9.46519 -1.82595 6.22624
lclavicle 2.70267e-014 9.23388e-015 0
lhumerus -42.2215 -7.48526 90.3887
lradius 24.8078 0 0
lwrist 1.51626 0 0
lhand -8.46893 -24.568 0
lfingers 7.12502 0 0
lthumb 17.4496 4.57039 0
rclavicle 2.70267e-014 9.23388e-015 0
rhumerus -43.7604 19.1396 -92.5073
rradius 55.7809 0 0
rwrist -27.6801 0 0
rhand -29.9889 -29.6822 0
rfingers 7.12502 0 0
rthumb -3.30678 -59.6361 0
40
root 8.2369 15.8631 -31.0945 7.01763 -9.0125 -5.3057
lfemur -37.5984 5.67186 -12.4182
ltibia 25.7917 0 0
lfoot -10.8977 10.601 0
ltoes -10.1558 0 0
rfemur 13.3471 5.0505 26.9108
rtibia 14.0477 0 0
rfoot -6.34798 -2.9816 0
rtoes -25.6413 0 0
lowerback -7.51163 1.30092 2.3752
upperback -1.2715 1.37227 3.29969
thorax 2.88598 0.70976 2.22877
lowerneck -21.0933 -4.41649 -11.7993
upperneck 16.6105 -5.54137 14.3131
head 9.48489 -1.8134 6.20993
lclavicle 2.688e-014 8.84914e-015 0
lhumerus -42.121 -7.37453 90.307
lradius 24.6333 0 0
lwrist 1.28464 0 0
lhand -8.02423 -24.2702 0
lfingers 7.12502 0 0
lthumb 17.8766 4.8199 0
rclavicle 2.688e-014 8.84914e-015 0
rhumerus -43.7257 18.904 -92.4502
rradius 55.0363 0 0
rwrist -27.3306 0 0
rhand -29.9638 -29.5124 0
rfingers 7.12502 0 0
rthumb -3.28253 -59.4666 0
41
root 8.27193 15.8798 -30.9409 6.9445 -9.14661 -5.05343
lfemur -37.1936 5.77963 -12.9039
ltibia 26.1253 0 0
lfoot -10.8677 10.4672 0
ltoes -9.8613 0 0
rfemur 12.6883 4.81543 26.4088
rtibia 15.8037 0 0
rfoot -5.69977 -3.27886 0
rtoes -24.6858 0 0
lowerback -7.41371 1.26847 2.16996
upperback -1.30777 1.3482 3.2658
thorax 2.79138 0.697457 2.30419
lowerneck -21.1608 -4.40255 -11.7951
upperneck 16.654 -5.50618 14.2516
head 9.50458 -1.80085 6.19363
lclavicle 2.67333e-014 8.46439e-015 0
lhumerus -42.0204 -7.26381 90.2254
lradius 24.4588 0 0
lwrist 1.05303 0 0
lhand -7.57952 -23.9724 0
lfingers 7.12502 0 0
lthumb 18.3037 5.06941 0
rclavicle 2.67333e-014 8.46439e-015 0
rhumerus -43.6911 18.6685 -92.3931
rradius 54.2916 0 0
rwrist -26.9812 0 0
rhand -29.9387 -29.3425 0
rfingers 7.12502 0 0
rthumb -3.25827 -59.297 0
42
root 8.30695 15.8966 -30.7874 6.87137 -9.28072 -4.80116
lfemur -36.7887 5.88739 -13.3895
ltibia 26.459 0 0
lfoot -10.8376 10.3334 0
ltoes -9.56675 0 0
rfemur 12.0296 4.58035 25.9069
rtibia 17.5597 0 0
rfoot -5.05155 -3.57611 0
rtoes -23.7303 0 0
lowerback -7.3158 1.23602 1.96472
upperback -1.34404 1.32414 3.23192
thorax 2.69677 0.685155 2.37961
lowerneck -21.2283 -4.3886 -11.7909
upperneck 16.6974 -5.471 14.19
head 9.52427 -1.78831 6.17733
lclavicle 2.65867e-014 8.07965e-015 0
lhumerus -41.9198 -7.15308 90.1438
lradius 24.2843 0 0
lwrist 0.821415 0 0
lhand -7.13481 -23.6747 0
lfingers 7.12502 0 0
lthumb 18.7308 5.31892 0
rclavicle 2.65867e-014 8.07965e-015 0
rhumerus -43.6564 18.4329 -92.336
rradius 53.5469 0 0
rwrist -26.6317 0 0
rhand -29.9136 -29.1726 0
rfingers 7.12502 0 0
rthumb -3.23402 -59.1275 0
43
root 8.34198 15.9133 -30.6338 6.79824 -9.41484 -4.54889
lfemur -36.3839 5.99516 -13.8752
ltibia 26.7926 0 0
lfoot -10.8075 10.1997 0
ltoes -9.27221 0 0
rfemur 11.3708 4.34528 25.4049
rtibia 19.3156 0 0
rfoot -4.40334 -3.87337 0
rtoes -22.7748 0 0
lowerback -7.21788 1.20358 1.75948
upperback -1.38031 1.30008 3.19803
thorax 2.60216 0.672852 2.45503
lowerneck -21.2959 -4.37465 -11.7868
upperneck 16.7409 -5.43581 14.1285
head 9.54396 -1.77576 6.16103
lclavicle 2.644e-014 7.6949e-015 0
lhumerus -41.8192 -7.04236 90.0621
lradius 24.1098 0 0
lwrist 0.589801 0 0
lhand -6.6901 -23.3769 0
lfingers 7.12502 0 0
lthumb 19.1579 5.56843 0
rclavicle 2.644e-014 7.6949e-015 0
rhumerus -43.6218 18.1974 -92.2789
rradius 52.8022 0 0
rwrist -26.2822 0 0
rhand -29.8885 -29.0027 0
rfingers 7.12502 0 0
rthumb -3.20977 -58.958 0
44
root 8.377 15.93 -30.4803 6.72511 -9.54895 -4.29663
lfemur -35.9791 6.10293 -14.3609
ltibia 27.1263 0 0
lfoot -10.7774 10.0659 0
ltoes -8.97766 0 0
rfemur 10.712 4.1102 24.9029
rtibia 21.0716 0 0
rfoot -3.75512 -4.17062 0
rtoes -21.8193 0 0
lowerback -7.11997 1.17113 1.55424
upperback -1.41658 1.27602 3.16414
thorax 2.50755 0.66055 2.53045
lowerneck -21.3634 -4.3607 -11.7826
upperneck 16.7844 -5.40063 14.0669
head 9.56365 -1.76321 6.14473
lclavicle 2.62933e-014 7.31016e-015 0
lhumerus -41.7186 -6.93163 89.9805
lradius 23.9353 0 0
lwrist 0.358187 0 0
lhand -6.24539 -23.0791 0
lfingers 7.12502 0 0
lthumb 19.585 5.81793 0
rclavicle 2.62933e-014 7.31016e-015 0
rhumerus -43.5871 17.9619 -92.2218
rradius 52.0575 0 0
rwrist -25.9327 0 0
rhand -29.8633 -28.8328 0
rfingers 7.12502 0 0
rthumb -3.18552 -58.7885 0
45
root 8.41203 15.9467 -30.3267 6.65199 -9.68306 -4.04436
lfemur -35.5743 6.21069 -14.8466
ltibia 27.46 0 0
lfoot -10.7474 9.93211 0
ltoes -8.68312 0 0
rfemur 10.0532 3.87513 24.401
rtibia 22.8276 0 0
rfoot -3.10691 -4.46788 0
rtoes -20.8638 0 0
lowerback -7.02205 1.13868 1.349
upperback -1.45285 1.25196 3.13026
thorax 2.41294 0.648248 2.60588
lowerneck -21.4309 -4.34676 -11.7784
upperneck 16.8278 -5.36544 14.0054
head 9.58334 -1.75066 6.12843
lclavicle 2.61466e-014 6.92541e-015 0
lhumerus -41.6181 -6.8209 89.8989
lradius 23.7608 0 0
lwrist 0.126574 0 0
lhand -5.80068 -22.7813 0
lfingers 7.12502 0 0
lthumb 20.0121 6.06744 0
rclavicle 2.61466e-014 6.92541e-015 0
rhumerus -43.5524 17.7263 -92.1647
rradius 51.3128 0 0
rwrist -25.5833 0 0
rhand -29.8382 -28.663 0
rfingers 7.12502 0 0
rthumb -3.16126 -58.6189 0
46
root 8.44705 15.9635 -30.1732 6.57886 -9.81718 -3.79209
lfemur -35.1695 6.31846 -15.3322
ltibia 27.7936 0 0
lfoot -10.7173 9.79834 0
ltoes -8.38857 0 0
rfemur 9.39447 3.64005 23.899
rtibia 24.5835 0 0
rfoot -2.45869 -4.76514 0
rtoes -19.9083 0 0
lowerback -6.92414 1.10623 1.14376
upperback -1.48912 1.2279 3.09637
thorax 2.31833 0.635945 2.6813
lowerneck -21.4985 -4.33281 -11.7743
upperneck 16.8713 -5.33025 13.9439
head 9.60303 -1.73811 6.11213
lclavicle 2.59999e-014 6.54067e-015 0
lhumerus -41.5175 -6.71018 89.8172
lradius 23.5863 0 0
lwrist -0.10504 0 0
lhand -5.35597 -22.4836 0
lfingers 7.12502 0 0
lthumb 20.4392 6.31695 0
rclavicle 2.59999e-014 6.54067e-015 0
rhumerus -43.5178 17.4908 -92.1076
rradius 50.5681 0 0
rwrist -25.2338 0 0
rhand -29.8131 -28.4931 0
rfingers 7.12502 0 0
rthumb -3.13701 -58.4494 0
